<?xml version="1.0" encoding="UTF-8"?>
<svg width="129px" height="33px" viewBox="0 0 129 33" version="1.1" xmlns="http://www.w3.org/2000/svg" xmlns:xlink="http://www.w3.org/1999/xlink">
    <!-- Generator: Sketch 52.6 (67491) - http://www.bohemiancoding.com/sketch -->
    <title>Group 15</title>
    <desc>Created with Sketch.</desc>
    <defs>
        <polygon id="path-1" points="0.271093103 0.105681481 21.8489207 0.105681481 21.8489207 22 0.271093103 22"></polygon>
        <polygon id="path-3" points="0.00744 0.0542 21.7732 0.0542 21.7732 21.775 0.00744 21.775"></polygon>
    </defs>
    <g id="Page-1" stroke="none" stroke-width="1" fill="none" fill-rule="evenodd">
        <g id="Fullscreen-Website" transform="translate(-36.000000, -31.000000)">
            <g id="Group-15" transform="translate(36.000000, 31.000000)">
                <path d="M23.2558919,32 L9.1809406,32 L9.1809406,31.5617453 C10.6967164,31.3862875 12.0826787,31.1671601 13.3819701,29.6765484 C13.9451377,29.0632257 13.9451377,26.8711725 13.9882805,24.9863655 C14.0314233,23.3643553 14.0749513,19.287495 14.0749513,16.087534 L14.0749513,1.5779508 C11.6061819,1.5779508 10.7833872,1.5779508 8.57463026,1.6216203 C6.4094013,1.66567972 5.11010984,2.1039344 3.89787438,3.24363052 C2.98802367,4.12013988 1.29929146,6.57537985 0.389825958,8.67931425 L0,8.54791583 L1.38596225,0.218737435 C2.7283965,0.525593693 3.50766322,0.701441435 5.67327738,0.745110941 C10.0472633,0.832449952 12.2128775,0.832449952 16.4998074,0.832449952 C20.7875077,0.832449952 22.9527367,0.788780446 27.3267226,0.745110941 C29.2323244,0.701441435 30.2716035,0.39419527 31.614423,0 L33,8.54791583 L32.610174,8.67931425 C31.7007085,6.57537985 29.9253055,3.98874146 29.01584,3.11223209 C27.8032194,1.97214607 26.5039279,1.66567972 24.3386989,1.6216203 C22.129942,1.5779508 21.3938181,1.5779508 18.8387631,1.5779508 C18.7952351,4.55878447 18.7952351,12.3179198 18.7952351,25.6437475 C18.7952351,27.3098171 18.8387631,29.1068952 19.2717319,29.7206078 C20.1376694,30.9917023 22.0001284,31.3422281 23.2558919,31.5617453 L23.2558919,32 Z" id="Fill-1" fill="#515354"></path>
                <g id="Group-5" transform="translate(27.000000, 11.000000)">
                    <mask id="mask-2" fill="white">
                        <use xlink:href="#path-1"></use>
                    </mask>
                    <g id="Clip-4"></g>
                    <path d="M15.7936103,21.9080889 L15.4950931,21.9080889 L15.4950931,17.1907185 L15.4526103,17.1446815 C14.2156793,19.2513852 11.7850586,22.000163 8.62919655,22.000163 C5.0045069,22.000163 3.29874828,19.5263852 3.29874828,15.0836074 L3.29874828,3.9072 C3.29874828,3.40364444 3.25626552,2.02945926 3.08557586,1.6632 C2.65923103,0.609644444 1.29447241,0.700903704 0.271093103,0.609644444 L0.271093103,0.105681481 L6.88095517,0.105681481 L6.88095517,13.4344222 C6.88095517,17.4192741 7.81898966,19.3430519 10.9319897,19.3430519 C13.2776448,19.3430519 14.4288517,17.9236444 15.4950931,16.5034222 L15.4950931,3.44927407 C15.4950931,2.85364444 15.4097483,1.70882963 15.0687483,1.20527407 C14.386369,0.884237037 13.1069552,0.747348148 11.8704034,0.609644444 L11.8704034,0.105681481 L19.0344379,0.105681481 L19.0344379,18.198237 C19.0344379,18.6565704 19.0773,18.8851259 19.4607828,19.1601259 C19.9728517,19.4807556 21.1669207,20.0303481 21.8489207,20.3509778 L21.8489207,20.6259778 L15.7936103,21.9080889 Z" id="Fill-3" fill="#515354" mask="url(#mask-2)"></path>
                </g>
                <path d="M65.2878433,15.2621573 C63.458413,17.5707435 63.0122686,18.2365452 61.5396745,20.2789687 C63.0567243,23.3426041 64.1276296,24.8519124 65.8236929,27.7378427 C67.9655036,31.422656 68.6795728,31.422656 70.7769278,31.5115085 L70.7769278,32 L60.379064,32 L60.379064,31.5115085 C60.9593692,31.4668848 62.2088911,31.6003611 62.476419,30.0910527 C62.2981994,28.5813494 60.6469888,25.8731242 59.1743947,23.2533567 C57.7018006,25.3846327 55.0689929,28.8921358 55.0689929,30.0018053 C55.4706816,31.2895746 56.2292065,31.4668848 57.7911089,31.5115085 L57.7911089,32 L49,32 L49,31.5115085 C50.6512106,31.4668848 51.722116,31.7776712 54.7566124,28.1374817 C56.4522787,26.0950581 57.9248728,24.0084057 58.8620142,22.6764075 C56.9877314,19.5243146 55.9612817,17.6153673 54.0869989,14.4632743 C53.6857071,13.7970777 53.1054018,13.0424236 52.7037131,12.5539321 C51.5879551,11.7104254 50.4277415,11.6661965 49.1782196,11.4880966 L49.1782196,11 L59.9329196,11 L59.9329196,11.4880966 C59.4419226,11.5327203 58.147945,11.5769491 57.656948,12.6870134 C57.7462563,13.35321 59.3974669,16.683008 61.2717497,19.7908722 C62.9229603,17.3488097 65.1540793,14.0636353 65.198535,13.0866524 C65.0203154,11.8435067 64.1276296,11.5769491 62.476419,11.4880966 L62.476419,11 L71,11 L71,11.4880966 C69.0812615,11.6661965 68.5009562,11.2223288 65.2878433,15.2621573" id="Fill-6" fill="#515354"></path>
                <path d="M83.6243421,14.5601886 L76.8786842,14.5601886 L76.8786842,26.2178397 C76.8786842,29.232396 78.2989474,30.5180968 80.3847368,30.5180968 C82.1156579,30.5180968 83.1364474,29.985838 83.9792105,28.7892413 L84.2456579,28.9221088 C83.5801316,30.7392799 81.7161842,33 77.9882895,33 C75.5472368,33 73.1507895,31.0495671 73.1507895,29.1436862 C73.1507895,23.603069 73.2396053,18.4165024 73.2396053,14.5601886 L70,14.5601886 L70,14.0728761 L76.435,8 L76.7902632,8 L76.7902632,11.856708 L85,11.856708 L83.6243421,14.5601886 Z" id="Fill-8" fill="#515354"></path>
                <path d="M95.3892326,11.7213838 C91.482164,11.7213838 89.1289983,16.9956255 89.1289983,22 C89.1289983,27.5 90.9936817,32.2790172 95.6553903,32.2790172 C100.228248,32.2790172 101.871002,25.9220983 101.871002,21.6844197 C101.871002,17.5818752 100.272476,11.7213838 95.3892326,11.7213838 M95.6111623,33 C90.9936817,33 85,29.4837052 85,21.7293307 C85,16.2293307 89.2620771,11 95.6996183,11 C100.40595,11 106,14.5616069 106,21.7293307 C106,27.8604914 101.205213,33 95.6111623,33" id="Fill-10" fill="#515354"></path>
                <g id="Group-14" transform="translate(107.000000, 11.000000)">
                    <mask id="mask-4" fill="white">
                        <use xlink:href="#path-3"></use>
                    </mask>
                    <g id="Clip-13"></g>
                    <path d="M12.59904,21.775 L12.59904,21.2806 C14.21824,21.1902 15.25264,21.0106 15.25264,20.0662 L15.25264,8.7334 C15.25264,5.2706 14.03824,2.9326 10.93544,2.9326 C8.95664,2.9326 7.87704,3.7866 6.25824,5.4054 L6.25824,20.1562 C6.48344,21.3254 7.47264,21.1454 8.68704,21.3254 L8.68704,21.775 L0.00744,21.775 L0.00744,21.3254 C1.40144,21.1902 2.52544,20.8306 2.52544,19.8862 L2.52544,4.4166 C2.52544,3.9666 2.48064,3.7418 2.07584,3.4718 C1.53664,3.157 0.77224,2.7522 0.05264,2.4374 L0.05264,2.1678 L5.94344,0.0542 L6.21344,0.0542 L6.21344,4.911 L6.30344,4.9558 C7.60744,2.8874 10.39544,0.0542 13.63344,0.0542 C17.09624,0.0542 19.02984,2.9326 19.02984,6.9798 L19.02984,20.201 C19.02984,21.1002 20.73904,21.235 21.77344,21.3702 L21.77344,21.775 L12.59904,21.775 Z" id="Fill-12" fill="#515354" mask="url(#mask-4)"></path>
                </g>
            </g>
        </g>
    </g>
</svg>